# xmcd
# 
# Track frame offsets:
#     150
#     21669
#     39798
#     58833
#     74132
#     90820
#     104347
#     134114
#     152135
#     169625
#     183227
#     202952
#     239711
# 
# Disc length: 3387
# 
# Revision: 2
# Processed by: cddbd v1.5.2PL0 Copyright (c) Steve Scherf et al.
# Submitted via: fre:ac v1.0.17
# 
DISCID=b80d390d
DTITLE=Sophie Zelmani - Going Home
DYEAR=2014
DGENRE=Folk
TTITLE0=Dreamer
TTITLE1=Going Home
TTITLE2=I Can't Change
TTITLE3=To Know You
TTITLE4=Wait For Cry
TTITLE5=Aftermath
TTITLE6=Got To Stop
TTITLE7=Maja's Song
TTITLE8=Love On My Mind
TTITLE9=Gone With The Madness
TTITLE10=Happier Man
TTITLE11=Oh Dear
TTITLE12=I'll Remember You
EXTD=
EXTT0=
EXTT1=
EXTT2=
EXTT3=
EXTT4=
EXTT5=
EXTT6=
EXTT7=
EXTT8=
EXTT9=
EXTT10=
EXTT11=
EXTT12=
PLAYORDER=
